<svg width="152" height="151" viewBox="0 0 152 151" fill="none" xmlns="http://www.w3.org/2000/svg">
<g filter="url(#filter0_dd_5_32)">
<rect x="4" width="144" height="143" rx="71.5" fill="white"/>
<path d="M55 32.356V74L76.3559 53.356L55 32.356Z" fill="#7512B3"/>
<path d="M97 32L76.3559 53.3559L97 74V32Z" fill="#BD94D7"/>
<path d="M46.9 102.5C46.8333 102.5 46.8 102.433 46.8 102.3C46.8 102.067 47.2667 101.367 48.2 100.2C48.3333 100.033 48.875 99.375 49.825 98.225C50.775 97.075 51.4333 96.2667 51.8 95.8C53.1667 94.0333 54.075 92.6917 54.525 91.775C54.9917 90.8583 55.225 90.1 55.225 89.5C55.225 88.1333 54.0917 87.45 51.825 87.45C49.425 87.45 46.3083 88.1 42.475 89.4C39.7917 90.3167 38.45 91.1667 38.45 91.95C38.45 92.2333 38.6417 92.5083 39.025 92.775C39.1417 92.8417 39.1333 92.8833 39 92.9C38.8833 92.9 38.7833 92.875 38.7 92.825C38.2 92.4917 37.95 92.0583 37.95 91.525C37.95 90.9917 38.1 90.4667 38.4 89.95C38.7167 89.4167 39.225 88.9583 39.925 88.575C41.525 87.6583 43.4417 86.9167 45.675 86.35C48.075 85.7333 50.3167 85.425 52.4 85.425C54.6 85.425 56.0167 85.8333 56.65 86.65C57.0667 87.1667 57.275 87.6833 57.275 88.2C57.275 88.7 57.175 89.2 56.975 89.7C56.6083 90.7167 56.0167 91.7167 55.2 92.7C55.0333 92.9167 54.4667 93.5917 53.5 94.725C52.55 95.8417 51.8083 96.7333 51.275 97.4C57.2917 91.0667 61.525 87.9 63.975 87.9C64.675 87.9 65.175 88.2 65.475 88.8C65.6417 89.1333 65.725 89.425 65.725 89.675C65.725 89.925 65.7083 90.2083 65.675 90.525C65.625 91.3583 64.925 92.9167 63.575 95.2C65.6083 93.0833 67.425 91.4333 69.025 90.25C70.9583 88.8167 72.6083 88.1 73.975 88.1C74.7583 88.1 75.15 88.4333 75.15 89.1C75.15 89.75 74.7333 90.6917 73.9 91.925C68.9833 99.1417 66.525 103.942 66.525 106.325C66.525 107.075 66.7417 107.483 67.175 107.55C67.4417 107.6 67.725 107.517 68.025 107.3C68.1417 107.217 68.2417 107.225 68.325 107.325C68.4083 107.442 68.375 107.567 68.225 107.7C68.075 107.85 67.9 107.925 67.7 107.925C67.5 107.925 67.2667 107.908 67 107.875C66.7333 107.842 66.3833 107.733 65.95 107.55C65.5167 107.383 65.15 107.092 64.85 106.675C64.5667 106.275 64.425 105.825 64.425 105.325C64.425 104.608 64.5167 103.967 64.7 103.4C65.15 102.083 67.2583 98.8 71.025 93.55C72.1583 91.9667 72.725 90.8333 72.725 90.15C72.725 89.6333 72.4583 89.375 71.925 89.375C71.2083 89.375 70.3667 89.7417 69.4 90.475C67.3333 92.0417 65.025 94.225 62.475 97.025C61.775 98.1583 60.9083 99.4833 59.875 101C59.725 101.217 59.55 101.325 59.35 101.325C58.6833 101.325 58.35 101.175 58.35 100.875C58.35 100.808 58.3667 100.742 58.4 100.675C61.1667 95.875 62.7167 92.8 63.05 91.45C63.15 90.9833 63.2 90.625 63.2 90.375C63.2 90.1083 63.1917 89.9 63.175 89.75C63.0583 89.2667 62.7583 89.025 62.275 89.025C61.7917 89.025 61.1333 89.3 60.3 89.85C58.8667 90.7667 57.0917 92.2417 54.975 94.275C52.8583 96.3083 50.825 98.4167 48.875 100.6C48.825 100.65 48.7667 100.675 48.7 100.675C47.7333 101.892 47.1333 102.5 46.9 102.5ZM76.1805 94.375C75.9971 94.225 75.9221 94.0083 75.9555 93.725C75.9888 93.4417 76.1388 93.1417 76.4055 92.825C76.6721 92.5083 77.0305 92.35 77.4805 92.35C77.6138 92.35 77.7555 92.4167 77.9055 92.55C78.0555 92.6667 78.1138 92.875 78.0805 93.175C78.0471 93.4583 77.9138 93.7333 77.6805 94C77.4471 94.25 77.1805 94.4167 76.8805 94.5C76.5971 94.5667 76.3638 94.525 76.1805 94.375ZM75.8555 95.7C75.1721 96.4 74.5971 97.2917 74.1305 98.375C73.6805 99.4417 73.4555 100.192 73.4555 100.625C73.4555 101.058 73.6221 101.275 73.9555 101.275C74.3055 101.275 74.8721 101.025 75.6555 100.525C76.4555 100.025 77.3638 99.3167 78.3805 98.4C78.5971 98.2 78.7055 98.225 78.7055 98.475C78.7055 98.5083 78.6888 98.5417 78.6555 98.575C77.8555 99.275 77.1805 99.85 76.6305 100.3C76.0805 100.75 75.4221 101.183 74.6555 101.6C73.9055 102 73.2888 102.2 72.8055 102.2C72.2055 102.2 71.7555 102.067 71.4555 101.8C71.1721 101.533 71.0305 101.242 71.0305 100.925C71.0305 100.325 71.1388 99.85 71.3555 99.5C71.5721 99.15 71.9388 98.6667 72.4555 98.05C72.2721 98.2 71.9805 98.45 71.5805 98.8C71.1971 99.15 70.9305 99.3833 70.7805 99.5C70.6305 99.6167 70.5555 99.5833 70.5555 99.4C70.5555 99.2833 70.6888 99.1167 70.9555 98.9C71.2221 98.6833 71.7971 98.1333 72.6805 97.25C73.5805 96.3667 74.1888 95.8417 74.5055 95.675C74.8388 95.5083 75.1055 95.425 75.3055 95.425C75.5221 95.425 75.6805 95.4583 75.7805 95.525C75.8805 95.575 75.9055 95.6333 75.8555 95.7ZM84.617 96.4C84.8503 96.1333 84.967 95.925 84.967 95.775C84.967 95.625 84.8087 95.55 84.492 95.55C84.192 95.55 83.7087 95.8417 83.042 96.425C82.4253 96.9583 81.6753 97.85 80.792 99.1C79.9253 100.35 79.292 101.2 78.892 101.65C78.5087 102.083 78.167 102.3 77.867 102.3C77.8337 102.3 77.8003 102.3 77.767 102.3C77.3337 102.3 76.9087 102.125 76.492 101.775C76.592 101.625 76.8337 101.3 77.217 100.8C78.067 99.7667 78.8087 98.7667 79.442 97.8C78.7253 98.5167 78.117 99.075 77.617 99.475C77.4503 99.6083 77.3587 99.6167 77.342 99.5C77.3087 99.3833 77.342 99.2833 77.442 99.2C77.542 99.1 77.7087 98.95 77.942 98.75C78.1753 98.5333 78.3253 98.3917 78.392 98.325C78.4753 98.2583 78.617 98.1333 78.817 97.95C79.0337 97.75 79.192 97.5917 79.292 97.475C79.7587 96.925 80.1003 96.4583 80.317 96.075C80.4003 95.875 80.4337 95.6833 80.417 95.5C80.417 95.3 80.3753 95.175 80.292 95.125C80.2253 95.0583 80.2003 94.9833 80.217 94.9C80.217 94.7667 80.2837 94.7 80.417 94.7C80.4837 94.7 80.5587 94.7167 80.642 94.75C81.1587 94.9833 81.417 95.45 81.417 96.15C81.417 96.8333 81.267 97.5667 80.967 98.35C81.617 97.5 82.1087 96.8917 82.442 96.525C83.3087 95.5583 84.1587 95.075 84.992 95.075C85.8087 95.075 86.292 95.425 86.442 96.125C86.4587 96.225 86.467 96.3833 86.467 96.6C86.467 96.8 86.3837 97.075 86.217 97.425C86.067 97.775 85.7003 98.35 85.117 99.15C84.5337 99.95 84.192 100.458 84.092 100.675C84.0087 100.875 83.9837 101.025 84.017 101.125C84.0503 101.225 84.1253 101.283 84.242 101.3C84.442 101.333 84.7837 101.2 85.267 100.9C85.9503 100.417 86.8337 99.675 87.917 98.675C88.1003 98.4917 88.192 98.5083 88.192 98.725C88.192 98.8083 88.1503 98.8917 88.067 98.975C86.4503 100.475 85.2503 101.408 84.467 101.775C83.5503 102.242 82.8337 102.317 82.317 102C82.0003 101.8 81.842 101.525 81.842 101.175C81.842 100.808 81.9087 100.442 82.042 100.075C82.342 99.225 83.2003 98 84.617 96.4ZM85.4559 108.85C84.0059 108.85 82.8059 108.533 81.8559 107.9C80.8892 107.267 80.4059 106.367 80.4059 105.2C80.4059 105.133 80.4309 105.1 80.4809 105.1C80.5975 105.1 80.6725 105.167 80.7059 105.3C80.8559 106.15 81.2642 106.883 81.9309 107.5C82.2309 107.783 82.6475 108.017 83.1809 108.2C83.6975 108.383 84.1309 108.475 84.4809 108.475C84.8309 108.475 85.0559 108.475 85.1559 108.475C87.0059 108.375 88.6225 107.442 90.0059 105.675C90.6559 104.842 91.2309 104.008 91.7309 103.175C92.2309 102.358 92.7725 101.442 93.3559 100.425C93.9392 99.4083 94.4309 98.6333 94.8309 98.1C94.3142 98.6833 93.6642 99.35 92.8809 100.1C92.0975 100.85 91.4225 101.392 90.8559 101.725C90.2892 102.058 89.7642 102.225 89.2809 102.225C88.7975 102.225 88.3809 102.083 88.0309 101.8C87.6975 101.5 87.5309 101.133 87.5309 100.7C87.5309 99.4667 88.0809 98.2583 89.1809 97.075C90.0142 96.1917 91.0475 95.5667 92.2809 95.2C92.8309 95.0167 93.3642 94.925 93.8809 94.925C94.4142 94.925 94.9225 95.075 95.4059 95.375C95.9059 95.6583 96.2225 96 96.3559 96.4C96.6225 96.4 96.9142 96.5167 97.2309 96.75C97.5475 96.9667 97.7059 97.125 97.7059 97.225C97.7059 97.325 97.6392 97.4083 97.5059 97.475C96.9725 97.7417 96.1309 98.9083 94.9809 100.975C93.8642 102.958 92.5559 104.733 91.0559 106.3C90.3059 107.083 89.4309 107.7 88.4309 108.15C87.4475 108.617 86.4559 108.85 85.4559 108.85ZM89.3309 101C89.3309 101.383 89.5309 101.575 89.9309 101.575C90.2475 101.575 90.6392 101.4 91.1059 101.05C92.2392 100.3 93.4225 99.2083 94.6559 97.775C95.2225 97.125 95.5059 96.6167 95.5059 96.25C95.5059 96.1167 95.4559 96 95.3559 95.9C95.2725 95.7833 95.0809 95.725 94.7809 95.725C94.4809 95.725 93.9975 95.9 93.3309 96.25C92.6809 96.6 92.0059 97.1333 91.3059 97.85C90.6225 98.55 90.1225 99.1833 89.8059 99.75C89.4892 100.3 89.3309 100.717 89.3309 101ZM99.9342 100.975C99.9342 101.425 100.159 101.65 100.609 101.65C100.876 101.65 101.293 101.542 101.859 101.325C102.443 101.108 103.193 100.633 104.109 99.9C105.026 99.1667 105.643 98.6417 105.959 98.325C106.276 97.9917 106.468 97.8333 106.534 97.85C106.601 97.85 106.626 97.9 106.609 98C106.593 98.0833 106.551 98.1583 106.484 98.225C105.068 99.675 103.893 100.717 102.959 101.35C102.026 101.983 101.159 102.3 100.359 102.3C99.6758 102.3 99.2008 102.142 98.9342 101.825C98.6675 101.508 98.5342 101.142 98.5342 100.725C98.5342 99.975 98.8008 99.075 99.3342 98.025C98.3675 99.0583 97.8842 99.3917 97.8842 99.025C97.8842 98.9583 97.9342 98.8833 98.0342 98.8C98.8175 98.1667 99.6592 97.25 100.559 96.05C102.209 93.9 103.501 92.0083 104.434 90.375C104.601 90.0583 104.684 89.825 104.684 89.675C104.684 89.325 104.493 89.2583 104.109 89.475C103.676 89.6917 103.443 89.775 103.409 89.725C103.376 89.675 103.401 89.6083 103.484 89.525C103.884 89.225 104.434 88.9417 105.134 88.675C105.834 88.4083 106.409 88.2667 106.859 88.25C107.559 88.25 107.909 88.4667 107.909 88.9C107.909 89.15 107.784 89.4833 107.534 89.9C107.301 90.3167 106.609 91.15 105.459 92.4C104.326 93.6333 103.634 94.4083 103.384 94.725C101.668 96.975 100.576 98.7667 100.109 100.1C99.9925 100.45 99.9342 100.742 99.9342 100.975ZM111.233 98.1C112.116 97.6167 112.558 97.125 112.558 96.625C112.558 96.125 112.258 95.875 111.658 95.875C111.374 95.875 111.074 95.95 110.758 96.1C110.058 96.4167 109.383 96.9667 108.733 97.75C107.933 98.7167 107.533 99.6167 107.533 100.45C107.533 100.767 107.616 101.067 107.783 101.35C107.966 101.617 108.283 101.75 108.733 101.75C109.516 101.75 110.508 101.342 111.708 100.525C112.908 99.6917 113.941 98.8583 114.808 98.025C115.008 97.825 115.108 97.8167 115.108 98C115.108 98.1167 115.058 98.2167 114.958 98.3C114.341 98.8667 113.924 99.25 113.708 99.45C113.508 99.6333 113.099 99.975 112.483 100.475C111.866 100.958 111.366 101.3 110.983 101.5C109.799 102.117 108.791 102.425 107.958 102.425C107.141 102.425 106.491 102.242 106.008 101.875C105.541 101.492 105.308 100.967 105.308 100.3C105.308 98.8833 105.941 97.6667 107.208 96.65C108.474 95.6167 109.799 95.1 111.183 95.1C112.116 95.1 112.741 95.3 113.058 95.7C113.191 95.9 113.258 96.1167 113.258 96.35C113.258 96.5667 113.183 96.8083 113.033 97.075C112.733 97.5917 112.166 98.05 111.333 98.45C110.516 98.8333 109.741 99.025 109.008 99.025C108.724 99.025 108.566 99 108.533 98.95C108.516 98.9 108.541 98.8667 108.608 98.85C108.674 98.8167 108.766 98.8 108.883 98.8C109.549 98.8 110.333 98.5667 111.233 98.1Z" fill="black"/>
</g>
<defs>
<filter id="filter0_dd_5_32" x="0" y="0" width="152" height="151" filterUnits="userSpaceOnUse" color-interpolation-filters="sRGB">
<feFlood flood-opacity="0" result="BackgroundImageFix"/>
<feColorMatrix in="SourceAlpha" type="matrix" values="0 0 0 0 0 0 0 0 0 0 0 0 0 0 0 0 0 0 127 0" result="hardAlpha"/>
<feOffset dy="4"/>
<feGaussianBlur stdDeviation="2"/>
<feComposite in2="hardAlpha" operator="out"/>
<feColorMatrix type="matrix" values="0 0 0 0 0 0 0 0 0 0 0 0 0 0 0 0 0 0 0.25 0"/>
<feBlend mode="normal" in2="BackgroundImageFix" result="effect1_dropShadow_5_32"/>
<feColorMatrix in="SourceAlpha" type="matrix" values="0 0 0 0 0 0 0 0 0 0 0 0 0 0 0 0 0 0 127 0" result="hardAlpha"/>
<feOffset dy="4"/>
<feGaussianBlur stdDeviation="2"/>
<feComposite in2="hardAlpha" operator="out"/>
<feColorMatrix type="matrix" values="0 0 0 0 0 0 0 0 0 0 0 0 0 0 0 0 0 0 0.25 0"/>
<feBlend mode="normal" in2="effect1_dropShadow_5_32" result="effect2_dropShadow_5_32"/>
<feBlend mode="normal" in="SourceGraphic" in2="effect2_dropShadow_5_32" result="shape"/>
</filter>
</defs>
</svg>
